<?xml version="1.0" standalone="no"?>
<!DOCTYPE svg PUBLIC "-//W3C//DTD SVG 20010904//EN"
 "http://www.w3.org/TR/2001/REC-SVG-20010904/DTD/svg10.dtd">
<svg version="1.0" xmlns="http://www.w3.org/2000/svg"
 width="260.000000pt" height="260.000000pt" viewBox="0 0 260.000000 260.000000"
 preserveAspectRatio="xMidYMid meet">
<metadata>
Created by potrace 1.14, written by Peter Selinger 2001-2017
</metadata>
<g transform="translate(0.000000,260.000000) scale(0.100000,-0.100000)"
fill="#000000" stroke="none">
<path d="M314 2538 c-21 -10 -44 -47 -44 -71 0 -7 -16 -19 -36 -26 -24 -9 -39
-22 -46 -41 -5 -17 -19 -31 -33 -34 -14 -4 -34 -16 -45 -28 -20 -22 -20 -31
-20 -1131 0 -1143 0 -1134 39 -1164 22 -17 2128 -19 2165 -1 14 6 31 24 38 39
8 18 23 31 40 35 28 6 58 47 58 79 0 8 8 15 19 15 10 0 30 12 45 26 l26 27 0
1109 c0 1200 2 1157 -52 1172 -42 11 -2131 6 -2154 -6z"/>
</g>
</svg>
